<mxfile host="app.diagrams.net" modified="2022-04-08T02:10:05.899Z" agent="5.0 (Macintosh; Intel Mac OS X 10_15_7) AppleWebKit/537.36 (KHTML, like Gecko) Chrome/100.0.4896.75 Safari/537.36" etag="0HX1sBSUonXAJqhOBUrw" version="16.6.1" type="github">
  <diagram id="qxyjiRBzxexwPmUNevRO" name="Page-1">
    <mxGraphModel dx="2306" dy="1154" grid="1" gridSize="10" guides="1" tooltips="1" connect="1" arrows="1" fold="1" page="1" pageScale="1" pageWidth="827" pageHeight="1169" math="0" shadow="0">
      <root>
        <mxCell id="0" />
        <mxCell id="1" parent="0" />
        <mxCell id="GRjlKQz-vHlwRUc3n3Sg-28" value="" style="rounded=0;whiteSpace=wrap;html=1;" vertex="1" parent="1">
          <mxGeometry x="839" y="795" width="211" height="110" as="geometry" />
        </mxCell>
        <mxCell id="GRjlKQz-vHlwRUc3n3Sg-5" value="" style="rounded=0;whiteSpace=wrap;html=1;" vertex="1" parent="1">
          <mxGeometry x="110" y="370" width="940" height="150" as="geometry" />
        </mxCell>
        <mxCell id="GRjlKQz-vHlwRUc3n3Sg-2" value="前置处理" style="rounded=0;whiteSpace=wrap;html=1;" vertex="1" parent="1">
          <mxGeometry x="150" y="420" width="120" height="60" as="geometry" />
        </mxCell>
        <mxCell id="GRjlKQz-vHlwRUc3n3Sg-3" value="目标方法" style="rounded=0;whiteSpace=wrap;html=1;" vertex="1" parent="1">
          <mxGeometry x="390" y="420" width="120" height="60" as="geometry" />
        </mxCell>
        <mxCell id="GRjlKQz-vHlwRUc3n3Sg-4" value="后置处理" style="rounded=0;whiteSpace=wrap;html=1;" vertex="1" parent="1">
          <mxGeometry x="630" y="420" width="120" height="60" as="geometry" />
        </mxCell>
        <mxCell id="GRjlKQz-vHlwRUc3n3Sg-6" value="" style="rounded=0;whiteSpace=wrap;html=1;" vertex="1" parent="1">
          <mxGeometry x="110" y="580" width="670" height="150" as="geometry" />
        </mxCell>
        <mxCell id="GRjlKQz-vHlwRUc3n3Sg-7" value="自定义函数1" style="rounded=1;whiteSpace=wrap;html=1;" vertex="1" parent="1">
          <mxGeometry x="160" y="630" width="120" height="60" as="geometry" />
        </mxCell>
        <mxCell id="GRjlKQz-vHlwRUc3n3Sg-8" value="自定义函数2" style="rounded=1;whiteSpace=wrap;html=1;" vertex="1" parent="1">
          <mxGeometry x="370" y="630" width="120" height="60" as="geometry" />
        </mxCell>
        <mxCell id="GRjlKQz-vHlwRUc3n3Sg-9" value="自定义函数3" style="rounded=1;whiteSpace=wrap;html=1;" vertex="1" parent="1">
          <mxGeometry x="580" y="630" width="120" height="60" as="geometry" />
        </mxCell>
        <mxCell id="GRjlKQz-vHlwRUc3n3Sg-10" value="" style="rounded=0;whiteSpace=wrap;html=1;" vertex="1" parent="1">
          <mxGeometry x="334.5" y="790" width="211" height="110" as="geometry" />
        </mxCell>
        <mxCell id="GRjlKQz-vHlwRUc3n3Sg-12" value="Spel解析" style="rounded=1;whiteSpace=wrap;html=1;" vertex="1" parent="1">
          <mxGeometry x="379.5" y="820" width="120" height="60" as="geometry" />
        </mxCell>
        <mxCell id="GRjlKQz-vHlwRUc3n3Sg-15" value="" style="shape=flexArrow;endArrow=classic;html=1;rounded=0;" edge="1" parent="1">
          <mxGeometry width="50" height="50" relative="1" as="geometry">
            <mxPoint x="280" y="449.5" as="sourcePoint" />
            <mxPoint x="380" y="449.5" as="targetPoint" />
          </mxGeometry>
        </mxCell>
        <mxCell id="GRjlKQz-vHlwRUc3n3Sg-16" value="" style="shape=flexArrow;endArrow=classic;html=1;rounded=0;" edge="1" parent="1">
          <mxGeometry width="50" height="50" relative="1" as="geometry">
            <mxPoint x="519" y="449.5" as="sourcePoint" />
            <mxPoint x="619" y="449.5" as="targetPoint" />
          </mxGeometry>
        </mxCell>
        <mxCell id="GRjlKQz-vHlwRUc3n3Sg-17" value="消息通知" style="rounded=0;whiteSpace=wrap;html=1;" vertex="1" parent="1">
          <mxGeometry x="870" y="420" width="120" height="60" as="geometry" />
        </mxCell>
        <mxCell id="GRjlKQz-vHlwRUc3n3Sg-18" value="" style="shape=flexArrow;endArrow=classic;html=1;rounded=0;" edge="1" parent="1">
          <mxGeometry width="50" height="50" relative="1" as="geometry">
            <mxPoint x="760" y="449.5" as="sourcePoint" />
            <mxPoint x="860" y="449.5" as="targetPoint" />
          </mxGeometry>
        </mxCell>
        <mxCell id="GRjlKQz-vHlwRUc3n3Sg-19" value="" style="shape=flexArrow;endArrow=classic;html=1;rounded=0;" edge="1" parent="1">
          <mxGeometry width="50" height="50" relative="1" as="geometry">
            <mxPoint x="209.5" y="490" as="sourcePoint" />
            <mxPoint x="209.5" y="600" as="targetPoint" />
          </mxGeometry>
        </mxCell>
        <mxCell id="GRjlKQz-vHlwRUc3n3Sg-20" value="" style="shape=flexArrow;endArrow=classic;html=1;rounded=0;" edge="1" parent="1">
          <mxGeometry width="50" height="50" relative="1" as="geometry">
            <mxPoint x="689.5" y="490" as="sourcePoint" />
            <mxPoint x="689.5" y="600" as="targetPoint" />
          </mxGeometry>
        </mxCell>
        <mxCell id="GRjlKQz-vHlwRUc3n3Sg-21" value="" style="shape=flexArrow;endArrow=classic;html=1;rounded=0;" edge="1" parent="1">
          <mxGeometry width="50" height="50" relative="1" as="geometry">
            <mxPoint x="439" y="700" as="sourcePoint" />
            <mxPoint x="439" y="810" as="targetPoint" />
          </mxGeometry>
        </mxCell>
        <mxCell id="GRjlKQz-vHlwRUc3n3Sg-22" value="" style="rounded=0;whiteSpace=wrap;html=1;" vertex="1" parent="1">
          <mxGeometry x="824.5" y="580" width="225.5" height="150" as="geometry" />
        </mxCell>
        <mxCell id="GRjlKQz-vHlwRUc3n3Sg-23" value="通知方法" style="rounded=1;whiteSpace=wrap;html=1;" vertex="1" parent="1">
          <mxGeometry x="877.25" y="625" width="120" height="60" as="geometry" />
        </mxCell>
        <mxCell id="GRjlKQz-vHlwRUc3n3Sg-24" value="" style="shape=flexArrow;endArrow=classic;html=1;rounded=0;" edge="1" parent="1">
          <mxGeometry width="50" height="50" relative="1" as="geometry">
            <mxPoint x="936.75" y="490" as="sourcePoint" />
            <mxPoint x="936.75" y="600" as="targetPoint" />
          </mxGeometry>
        </mxCell>
        <mxCell id="GRjlKQz-vHlwRUc3n3Sg-26" value="ES" style="rounded=1;whiteSpace=wrap;html=1;" vertex="1" parent="1">
          <mxGeometry x="879.5" y="820" width="115.5" height="60" as="geometry" />
        </mxCell>
        <mxCell id="GRjlKQz-vHlwRUc3n3Sg-27" value="" style="shape=flexArrow;endArrow=classic;html=1;rounded=0;" edge="1" parent="1">
          <mxGeometry width="50" height="50" relative="1" as="geometry">
            <mxPoint x="938" y="705" as="sourcePoint" />
            <mxPoint x="938" y="815" as="targetPoint" />
          </mxGeometry>
        </mxCell>
      </root>
    </mxGraphModel>
  </diagram>
</mxfile>
